<?xml version="1.0" encoding="UTF-8"?>
<!DOCTYPE svg PUBLIC "-//W3C//DTD SVG 1.1//EN" "http://www.w3.org/Graphics/SVG/1.1/DTD/svg11.dtd">
<svg version="1.1" xmlns="http://www.w3.org/2000/svg" xmlns:xlink="http://www.w3.org/1999/xlink" x="0" y="0" width="300" height="240" viewBox="0, 0, 300, 240">
  <g id="Ebene_1">
    <g>
      <path d="M144.921,147.752 C144.921,181.086 118.416,208.108 85.722,208.108 C53.028,208.108 26.523,181.086 26.523,147.752 C26.523,114.418 53.028,87.396 85.722,87.396 C118.416,87.396 144.921,114.418 144.921,147.752 z" fill-opacity="0" stroke="#DE2C68" stroke-width="1.693"/>
      <path d="M255.046,117.318 C255.046,153.215 226.435,182.315 191.143,182.315 C155.85,182.315 127.239,153.215 127.239,117.318 C127.239,81.422 155.85,52.322 191.143,52.322 C226.435,52.322 255.046,81.422 255.046,117.318 z" fill-opacity="0" stroke="#DE2C68" stroke-width="1.695"/>
      <path d="M274.477,117.318 C274.477,163.945 237.045,201.744 190.87,201.744 C144.695,201.744 107.263,163.945 107.263,117.318 C107.263,70.691 144.695,32.892 190.87,32.892 C237.045,32.892 274.477,70.691 274.477,117.318 z" fill-opacity="0" stroke="#DE2C68" stroke-width="9.201"/>
      <path d="M70.942,118.179 L57.745,118.179 L68.302,128.186 L47.187,128.186 L47.187,138.193 L68.302,138.193 L57.745,148.2 L70.942,148.2 L86.778,133.189 z" fill="#FFCC33"/>
      <path d="M208.039,158.937 L191.475,141.794 L227.364,141.794 L227.364,124.652 L191.475,124.652 L208.039,107.509 L185.954,107.509 L161.108,133.223 L185.954,158.937 z" fill="#FFCC33"/>
    </g>
  </g>
</svg>
