<?xml version="1.0" encoding="utf-8"?>
<!-- Generator: Adobe Illustrator 16.0.0, SVG Export Plug-In . SVG Version: 6.00 Build 0)  -->
<!DOCTYPE svg PUBLIC "-//W3C//DTD SVG 1.1//EN" "http://www.w3.org/Graphics/SVG/1.1/DTD/svg11.dtd">
<svg version="1.1" id="Ebene_1" xmlns="http://www.w3.org/2000/svg" xmlns:xlink="http://www.w3.org/1999/xlink" x="0px" y="0px"
	 width="595.28px" height="841.89px" viewBox="0 0 595.28 841.89" enable-background="new 0 0 595.28 841.89" xml:space="preserve">
<g>
	<polygon fill="#DA1168" points="28.347,35.434 28.347,42.52 566.93,42.52 566.93,35.434 28.347,35.434 	"/>
	<polygon fill="#F6A11A" points="28.347,28.347 28.347,35.434 566.93,35.434 566.93,28.347 28.347,28.347 	"/>
	<polygon fill="#DA1168" points="28.347,799.37 28.347,806.456 566.93,806.456 566.93,799.37 28.347,799.37 	"/>
	<polygon fill="#F6A11A" points="28.347,806.456 28.347,813.542 566.93,813.542 566.93,806.456 28.347,806.456 	"/>
	<path fill="#FFFFFF" d="M453.686,111.326c0-16.256,13.178-29.435,29.435-29.435s29.436,13.179,29.436,29.435
		c0,16.257-13.179,29.435-29.436,29.435S453.686,127.583,453.686,111.326L453.686,111.326z"/>
	<path fill="#FFFFFF" d="M481.492,99.679c0-23.654,19.094-42.829,42.649-42.829c23.555,0,42.649,19.175,42.649,42.829
		s-19.095,42.829-42.649,42.829C500.586,142.508,481.492,123.333,481.492,99.679L481.492,99.679z"/>
	<path fill="none" stroke="#DC0868" stroke-width="1.156" stroke-miterlimit="3.8637" d="M460.075,111.326
		c0-12.781,10.317-23.143,23.045-23.143c12.729,0,23.046,10.361,23.046,23.143c0,12.782-10.317,23.143-23.046,23.143
		C470.393,134.468,460.075,124.107,460.075,111.326L460.075,111.326z"/>
	<polygon fill="#FAB316" points="512.656,106.073 522.413,96.272 531.602,96.272 525.098,102.806 538.117,102.806 538.117,109.339 
		525.098,109.34 531.602,115.874 522.413,115.874 512.656,106.073 	"/>
	<polygon fill="#FAB316" points="483.718,106.073 477.955,100.284 472.528,100.284 476.369,104.143 468.681,104.144 
		468.681,108.003 476.369,108.002 472.528,111.861 477.955,111.861 483.718,106.073 	"/>
	<g>
		<defs>
			<polyline id="SVGID_1_" points="453.543,56.693 566.93,56.693 566.93,142.512 453.543,142.512 453.543,56.693 			"/>
		</defs>
		<clipPath id="SVGID_2_">
			<use xlink:href="#SVGID_1_"  overflow="visible"/>
		</clipPath>
		<path clip-path="url(#SVGID_2_)" fill="none" stroke="#DC0868" stroke-width="6.9437" stroke-miterlimit="3.8637" d="
			M491.878,99.679c0-17.894,14.444-32.4,32.264-32.4c17.818,0,32.264,14.506,32.264,32.4c0,17.894-14.445,32.399-32.264,32.399
			C506.322,132.078,491.878,117.572,491.878,99.679L491.878,99.679z"/>
	</g>
	<path fill="none" stroke="#DC0868" stroke-width="1.156" stroke-miterlimit="3.8637" d="M499.416,99.678
		c0-13.713,11.069-24.83,24.726-24.83c13.655,0,24.726,11.117,24.726,24.83c0,13.713-11.07,24.83-24.726,24.83
		C510.485,124.508,499.416,113.392,499.416,99.678L499.416,99.678z"/>
	<path fill="#010202" d="M467.451,142.512c-0.975,0-1.694,0.2-2.16,0.599c-0.465,0.398-0.696,1.015-0.696,1.849v0.533h-1.218v1.75
		h1.218v5.906h2.446v-5.906h2.093v-1.75h-2.093v-0.533c0-0.31,0.068-0.528,0.205-0.653c0.138-0.125,0.378-0.188,0.726-0.188h1.353
		v-1.607H467.451L467.451,142.512z M476.058,145.363c-0.183-0.023-0.321-0.038-0.416-0.044c-0.097-0.007-0.186-0.011-0.268-0.011
		c-0.569,0-1.059,0.115-1.466,0.346c-0.408,0.23-0.769,0.595-1.084,1.097v-1.258h-2.447v7.656h2.447v-3.527
		c0-0.752,0.17-1.33,0.509-1.733c0.341-0.403,0.824-0.605,1.453-0.605c0.214,0,0.428,0.024,0.64,0.072s0.425,0.122,0.639,0.222
		L476.058,145.363L476.058,145.363z M483.841,146.396c-0.723-0.724-1.686-1.087-2.889-1.087c-1.321,0-2.359,0.358-3.113,1.074
		c-0.755,0.715-1.132,1.697-1.132,2.946c0,1.271,0.385,2.259,1.152,2.963s1.844,1.056,3.23,1.056c0.577,0,1.156-0.055,1.735-0.167
		c0.579-0.112,1.158-0.277,1.736-0.496v-1.886c-0.569,0.31-1.124,0.541-1.664,0.693c-0.54,0.153-1.068,0.229-1.583,0.229
		c-0.638,0-1.134-0.143-1.49-0.43c-0.354-0.287-0.562-0.718-0.622-1.292h5.723v-0.697
		C484.925,148.088,484.562,147.121,483.841,146.396L483.841,146.396z M479.229,148.487c0.073-0.501,0.258-0.885,0.554-1.152
		c0.296-0.266,0.682-0.4,1.155-0.4c0.438,0,0.792,0.143,1.062,0.428c0.271,0.284,0.407,0.659,0.407,1.124H479.229L479.229,148.487z
		 M486.776,153.149h2.448v-7.656h-2.448V153.149L486.776,153.149z M486.776,144.509h2.448v-1.997h-2.448V144.509L486.776,144.509z
		 M494.74,142.512c-0.975,0-1.694,0.2-2.16,0.599c-0.465,0.398-0.696,1.015-0.696,1.849v0.533h-1.218v1.75h1.218v5.906h2.446v-5.906
		h2.092v-1.75h-2.092v-0.533c0-0.31,0.068-0.528,0.205-0.653c0.138-0.125,0.378-0.188,0.726-0.188h1.353v-1.607H494.74
		L494.74,142.512z M498.278,152.534c0.462,0.542,1.136,0.813,2.021,0.813c0.495,0,0.95-0.106,1.362-0.317
		c0.413-0.212,0.805-0.542,1.173-0.988v1.107h2.447v-7.656h-2.447v3.78c0,0.697-0.146,1.242-0.438,1.634
		c-0.291,0.392-0.692,0.588-1.203,0.588c-0.209,0-0.395-0.043-0.557-0.13c-0.162-0.087-0.293-0.21-0.394-0.369
		c-0.078-0.123-0.132-0.32-0.164-0.591c-0.031-0.272-0.048-0.715-0.048-1.33c0-0.21,0.002-0.628,0.007-1.254
		c0.004-0.627,0.007-1.148,0.007-1.562v-0.766h-2.461v4.676C497.584,151.204,497.815,151.992,498.278,152.534L498.278,152.534z
		 M514.644,146.123c-0.458-0.542-1.129-0.814-2.013-0.814c-0.503,0-0.961,0.106-1.374,0.318c-0.415,0.212-0.808,0.541-1.177,0.988
		v-1.121h-2.446v7.656h2.446v-3.766c0-0.698,0.146-1.243,0.438-1.638c0.292-0.394,0.692-0.591,1.204-0.591
		c0.209,0,0.396,0.044,0.56,0.133c0.164,0.089,0.294,0.213,0.391,0.373c0.072,0.118,0.123,0.303,0.153,0.554
		c0.029,0.25,0.044,0.706,0.044,1.367v2.809v0.759h2.461v-4.662C515.33,147.454,515.102,146.665,514.644,146.123L514.644,146.123z
		 M517.6,153.149h2.447v-3.192l2.987,3.192h2.967l-4.032-4.142l3.738-3.514h-2.844l-2.816,2.809v-5.79H517.6V153.149L517.6,153.149z
		 M527.163,153.149h2.461v-2.645h-2.461V153.149L527.163,153.149z M539.239,146.123c-0.458-0.542-1.13-0.814-2.014-0.814
		c-0.501,0-0.959,0.106-1.374,0.318c-0.414,0.212-0.807,0.541-1.175,0.988v-1.121h-2.448v7.656h2.448v-3.766
		c0-0.698,0.145-1.243,0.437-1.638c0.292-0.394,0.693-0.591,1.203-0.591c0.21,0,0.396,0.044,0.561,0.133
		c0.164,0.089,0.295,0.213,0.39,0.373c0.073,0.118,0.125,0.303,0.153,0.554c0.03,0.25,0.046,0.706,0.046,1.367v2.809v0.759h2.461
		v-4.662C539.927,147.454,539.697,146.665,539.239,146.123L539.239,146.123z M548.754,146.396c-0.722-0.724-1.685-1.087-2.888-1.087
		c-1.321,0-2.36,0.358-3.114,1.074c-0.754,0.715-1.131,1.697-1.131,2.946c0,1.271,0.385,2.259,1.152,2.963s1.844,1.056,3.23,1.056
		c0.577,0,1.156-0.055,1.735-0.167c0.579-0.112,1.158-0.277,1.736-0.496v-1.886c-0.569,0.31-1.124,0.541-1.664,0.693
		c-0.54,0.153-1.068,0.229-1.583,0.229c-0.638,0-1.134-0.143-1.49-0.43c-0.354-0.287-0.562-0.718-0.622-1.292h5.722v-0.697
		C549.838,148.088,549.478,147.121,548.754,146.396L548.754,146.396z M544.144,148.487c0.073-0.501,0.258-0.885,0.554-1.152
		c0.296-0.266,0.682-0.4,1.155-0.4c0.438,0,0.792,0.143,1.062,0.428c0.271,0.284,0.407,0.659,0.407,1.124H544.144L544.144,148.487z
		 M551.916,143.319v2.174h-1.217v1.75h1.217v3.247c0,0.966,0.202,1.651,0.605,2.054c0.402,0.404,1.088,0.605,2.054,0.605h2.099
		v-1.75h-1.258c-0.419,0-0.699-0.062-0.841-0.188c-0.141-0.125-0.212-0.366-0.212-0.721v-3.247h2.523v-1.75h-2.523v-2.174H551.916
		L551.916,143.319z"/>
</g>
</svg>
